{
    "asset": {
        "version": "2.0",
        "generator": "Open Asset Import Library (assimp v5.0.5eb040c7)"
    },
    "accessors": [
        {
            "bufferView": 0,
            "byteOffset": 0,
            "componentType": 5126,
            "count": 37107,
            "type": "VEC3",
            "max": [
                4.678699970245361,
                16.528900146484376,
                26.396099090576173
            ],
            "min": [
                -4.678699970245361,
                -22.14389991760254,
                -0.13349999487400056
            ]
        },
        {
            "bufferView": 1,
            "byteOffset": 0,
            "componentType": 5126,
            "count": 37107,
            "type": "VEC3",
            "max": [
                0.9999935626983643,
                0.9999469518661499,
                0.9999996423721314
            ],
            "min": [
                -0.9999898672103882,
                -0.9996282458305359,
                -0.9999836683273315
            ]
        },
        {
            "bufferView": 2,
            "byteOffset": 0,
            "componentType": 5126,
            "count": 37107,
            "type": "VEC2",
            "max": [
                0.9904999732971191,
                0.9850999712944031
            ],
            "min": [
                0.013899999670684338,
                0.010399997234344483
            ]
        },
        {
            "bufferView": 3,
            "byteOffset": 0,
            "componentType": 5125,
            "count": 215904,
            "type": "SCALAR",
            "max": [
                37106
            ],
            "min": [
                0
            ]
        }
    ],
    "buffers": [
        {
            "byteLength": 2051040,
            "uri": "result.bin"
        }
    ],
    "bufferViews": [
        {
            "buffer": 0,
            "byteOffset": 0,
            "byteLength": 445284,
            "target": 34962
        },
        {
            "buffer": 0,
            "byteOffset": 445284,
            "byteLength": 445284,
            "target": 34962
        },
        {
            "buffer": 0,
            "byteOffset": 890568,
            "byteLength": 296856,
            "target": 34962
        },
        {
            "buffer": 0,
            "byteOffset": 1187424,
            "byteLength": 863616,
            "target": 34963
        }
    ],
    "materials": [
        {
            "name": "DefaultMaterial",
            "pbrMetallicRoughness": {
                "baseColorFactor": [
                    0.6000000238418579,
                    0.6000000238418579,
                    0.6000000238418579,
                    1.0
                ],
                "metallicFactor": 0.0
            }
        },
        {
            "name": "Australian_Cattle_Dog",
            "pbrMetallicRoughness": {
                "baseColorFactor": [
                    0.6000000238418579,
                    0.6000000238418579,
                    0.6000000238418579,
                    1.0
                ],
                "metallicFactor": 0.0
            }
        }
    ],
    "meshes": [
        {
            "name": "Australian_Cattle_Dog",
            "primitives": [
                {
                    "mode": 4,
                    "material": 1,
                    "indices": 3,
                    "attributes": {
                        "POSITION": 0,
                        "NORMAL": 1,
                        "TEXCOORD_0": 2
                    }
                }
            ]
        }
    ],
    "nodes": [
        {
            "name": "input.obj",
            "children": [
                1
            ]
        },
        {
            "name": "Australian_Cattle_Dog",
            "mesh": 0
        }
    ],
    "scenes": [
        {
            "nodes": [
                0
            ]
        }
    ],
    "scene": 0
}